<?xml version="1.0" encoding="UTF-8" standalone="no"?>
<svg
   version="1.1"
   id="Calque_1"
   x="0px"
   y="0px"
   viewBox="0 0 140.60001 76.119622"
   width="451.60602"
   height="244.49557"
   xml:space="preserve"
   xmlns:xlink="http://www.w3.org/1999/xlink"
   xmlns="http://www.w3.org/2000/svg"
   xmlns:svg="http://www.w3.org/2000/svg"><defs
   id="defs1"><linearGradient
     id="linearGradient1"><stop
       style="stop-color:#666666;stop-opacity:1;"
       offset="0"
       id="stop1" /><stop
       style="stop-color:#666666;stop-opacity:1;"
       offset="0.45420957"
       id="stop3" /><stop
       style="stop-color:#666666;stop-opacity:0.29714531;"
       offset="1"
       id="stop2" /></linearGradient><linearGradient
     xlink:href="#linearGradient1"
     id="linearGradient2"
     x1="112.49832"
     y1="37.055305"
     x2="125.73756"
     y2="77.801506"
     gradientUnits="userSpaceOnUse" /></defs>
<style
   type="text/css"
   id="style1">
	.st0{fill:#40B3C3;}
	.st1{opacity:0.28;fill:#40B3C3;}
</style>
<g
   id="g1">
	<path
   id="path4143_3_"
   class="st0"
   d="m 5,0 c 0.1,0 0.3,0.1 0.4,0.1 2.5,0.8 4.5,2 4.6,2.1 1.9,1.3 3.6,3.1 4.8,5.1 0.4,0.6 5.2,7.8 8.6,12.9 -0.8,1.2 -1.5,2.3 -2.1,3.1 0,-0.1 -0.1,-0.1 -0.1,-0.2 C 17.6,17.9 11.4,8.6 11,7.9 10.1,6.6 9,5.4 7.5,4.5 7.5,4.5 6,3.5 4,2.9 3.2,2.6 1.8,2.4 0,2.2 V 44.6 C 1.8,44.4 3.2,44.2 4,43.9 6,43.3 7.5,42.3 7.5,42.3 9,41.3 10.2,40.1 11,38.9 11.4,38.2 17.6,29 21.1,23.7 24,19.1 31.4,8.1 31.9,7.3 c 1.2,-2 2.9,-3.8 4.8,-5.1 0,-0.1 2.1,-1.3 4.6,-2.1 L 41.8,0 Z m 41.7,2.2 c -1.8,0.2 -3.2,0.4 -4,0.7 -2.1,0.6 -3.6,1.6 -3.6,1.6 -1.5,0.9 -2.6,2.1 -3.5,3.4 -0.4,0.7 -6.6,9.9 -10.1,15.2 -2.9,4.4 -10.3,15.5 -10.8,16.2 -1.2,2 -2.9,3.8 -4.8,5.1 0,0.1 -2.1,1.3 -4.6,2.1 l -0.5,0.1 h 36.8 l -0.4,-0.1 c -2.5,-0.8 -4.5,-2 -4.6,-2.1 -1.9,-1.3 -3.6,-3.1 -4.8,-5.1 -0.4,-0.6 -5.2,-7.8 -8.6,-12.9 0.8,-1.2 1.5,-2.3 2.1,-3.1 0,0.1 0.1,0.1 0.1,0.2 3.5,5.3 9.7,14.5 10.1,15.2 0.9,1.3 2,2.5 3.5,3.4 0,0 1.5,1 3.5,1.6 0.8,0.3 2.2,0.5 4,0.7 v 2.1 h 0.1 V 2.2 Z" />
	<path
   id="path7-3_4_"
   class="st1"
   d="m 25.4,23.3 c -0.6,0.8 -1.3,1.9 -2.1,3.1 3.4,5.1 8.1,12.3 8.6,12.9 1.2,2 2.9,3.8 4.8,5.1 0,0.1 2.1,1.3 4.6,2.1 0.2,0 0.4,0.1 0.5,0.1 h 4.8 V 44.4 C 44.8,44.2 43.4,44 42.6,43.7 40.6,43.1 39.1,42.1 39.1,42.1 37.6,41.2 36.5,40 35.6,38.7 35.2,38 29,28.8 25.5,23.5 v 0 c 0,0 0,-0.1 -0.1,-0.2 M 4.8,0 H 0 v 2.2 c 1.8,0.2 3.2,0.4 4,0.7 2,0.6 3.5,1.6 3.5,1.6 1.5,0.9 2.6,2.1 3.5,3.4 0.4,0.7 6.6,9.9 10.1,15.2 v 0 c 0,0.1 0.1,0.1 0.1,0.2 0.6,-0.8 1.3,-1.9 2.1,-3.1 C 19.9,15.1 15.2,7.9 14.7,7.3 13.5,5.3 11.8,3.5 9.9,2.2 9.9,2.1 7.8,0.9 5.3,0.1 5.2,0.1 5,0 4.8,0" />
	<path
   class="st0"
   d="m 140.6,31.9 c 0,6.3 -4.5,8.5 -9.6,8.5 -3.9,0 -7.6,-0.8 -10.5,-2.7 l 1,-1.9 c 2.6,1.6 5.9,2.6 9.4,2.6 3.9,0 7.4,-1.6 7.4,-6.5 0,-4.1 -3.7,-5 -8.1,-6.2 -4.7,-1.3 -8.7,-3 -8.7,-8.5 0,-5.5 4.4,-7.7 9.2,-7.7 2.7,0 5.5,0.3 8.1,1.6 l -0.9,2 c -2.2,-1.1 -4.6,-1.5 -7.2,-1.5 -3.9,0 -7,1.3 -7,5.7 0,3.8 2.7,5 7.4,6.3 5.2,1.4 9.5,2.6 9.5,8.3 z m -32.1,-6.1 c 0,7.3 -1.1,12.5 -8,12.5 h -0.6 c -6.9,0 -8,-5.1 -8,-12.5 V 9.4 c -0.8,0.4 -1.7,0.9 -2.4,1.5 v 15.6 c 0,6.5 1.2,13.9 10,13.9 h 1.3 c 8.7,0 10,-7.4 10.1,-14 V 10.8 c -0.7,-0.6 -1.5,-1.1 -2.4,-1.5 z M 80.7,24.9 v 0.8 0 H 59.9 v 1.2 c 0.4,9.5 4.6,11.5 10,11.5 3.3,0 5.9,-0.6 8.7,-2.2 l 0.9,2 c -2.8,1.7 -6,2.3 -9.6,2.3 C 63.1,40.5 57.6,37.7 57.6,25 57.6,11.4 64,9.4 69.4,9.4 c 7,-0.1 11.3,3.8 11.3,15.5 z m -2.4,-1.4 c 0,-9.2 -3.6,-12 -9,-12 -4.9,0 -9.3,1.9 -9.5,12 z"
   id="path1" />
</g>
<path
   class="jp-icon-selectable"
   d="m 119.11793,71.775038 c -11.83084,0 -21.421529,-6.423196 -21.421529,-14.346603 0,-7.923466 9.590689,-14.346663 21.421529,-14.346663 11.83075,0 21.42156,6.423197 21.42156,14.346663 0,7.923407 -9.59081,14.346603 -21.42156,14.346603 z m 3.27894,-23.084214 c -8.99247,0 -16.28229,4.391175 -16.28229,9.80796 0,5.416784 7.28982,9.80796 16.28229,9.80796 8.99238,0 15.6286,-3.002138 15.6286,-9.80796 0,-6.803689 -6.63622,-9.80796 -15.6286,-9.80796 z"
   fill="#b3b3b3"
   fill-rule="evenodd"
   id="path1-8"
   style="fill:url(#linearGradient2);fill-opacity:1;stroke-width:0.0594141" /><path
   class="jp-icon-selectable"
   d="m 130.32019,65.302646 c 0,0 1.2966,0.391269 2.04987,0.77235 0.26166,0.132294 0.71328,0.396192 1.0397,0.742644 0.31952,0.339371 0.47495,0.683231 0.47495,0.683231 l 5.10965,8.61505 -8.25855,0.0037 -3.86192,-7.252203 c 0,0 -0.791,-1.358736 -1.27743,-1.752718 -0.40586,-0.328576 -0.57857,-0.445586 -0.98029,-0.445586 -0.27979,0 -1.96222,0 -1.96222,0 l 0.001,9.4453 -7.30796,0.0031 V 51.990123 h 14.67525 c 0,0 6.68414,0.12055 6.68414,6.479827 0,6.359269 -6.38709,6.832618 -6.38709,6.832618 z m -3.1786,-8.078896 -4.42417,-0.0028 -0.002,4.102546 4.42633,-0.0015 c 0,0 2.04979,-0.0064 2.04979,-2.086925 0,-2.12239 -2.04979,-2.011347 -2.04979,-2.011347 z"
   fill="#3465b0"
   fill-rule="evenodd"
   id="path2"
   style="fill:#666666;fill-opacity:1;stroke-width:0.0594141" /></svg>
