<?xml version="1.0" encoding="UTF-8" standalone="no"?>
<svg
   preserveAspectRatio="xMidYMid"
   width="724"
   height="724"
   viewBox="0 0 32761 25385.25"
   version="1.1"
   id="svg2"
   xmlns="http://www.w3.org/2000/svg"
   xmlns:svg="http://www.w3.org/2000/svg">
  <defs
     id="defs2" />
  <path
     class="jp-icon-selectable"
     d="M 16381.406,21943.967 C 7334.7334,21943.967 0.906,17032.32 0.906,10973.506 0.906,4914.6467 7334.7334,3 16381.406,3 c 9046.719,0 16380.5,4911.6467 16380.5,10970.506 0,6058.814 -7333.781,10970.461 -16380.5,10970.461 z M 18888.728,4292.0872 c -6876.279,0 -12450.6021,3357.8147 -12450.6021,7499.8828 0,4142.068 5574.3231,7499.883 12450.6021,7499.883 6876.231,0 11950.799,-2295.652 11950.799,-7499.883 0,-5202.5957 -5074.568,-7499.8828 -11950.799,-7499.8828 z"
     fill="#b3b3b3"
     fill-rule="evenodd"
     id="path1"
     style="stroke-width:45.4324" />
  <path
     class="jp-icon-selectable"
     d="m 24947.541,16994.702 c 0,0 991.425,299.171 1567.416,590.62 199.858,101.132 545.643,302.944 795.066,567.905 244.336,259.509 363.459,522.472 363.459,522.472 l 3907.183,6587.692 -6315.097,2.817 -2953.104,-5545.565 c 0,0 -604.704,-1038.993 -976.795,-1340.254 -310.395,-251.287 -442.74,-340.743 -749.634,-340.743 -213.623,0 -1500.449,0 -1500.449,0 l 1.181,7222.564 -5588.18,2.362 V 6815.0369 h 11221.791 c 0,0 5111.141,92.1821 5111.141,4954.9431 0,4862.762 -4883.978,5224.722 -4883.978,5224.722 z m -2430.632,-6177.711 -3383.029,-2.181 -1.68,3137.105 3384.709,-1.091 c 0,0 1567.417,-4.861 1567.417,-1595.811 0,-1622.935 -1567.417,-1538.022 -1567.417,-1538.022 z"
     fill="#3465b0"
     fill-rule="evenodd"
     id="path2"
     style="stroke-width:45.4324" />
</svg>
